<svg width="1282" height="723" xmlns="http://www.w3.org/2000/svg" xmlns:xlink="http://www.w3.org/1999/xlink" overflow="hidden"><defs><clipPath id="clip0"><rect x="-1" y="-1" width="1282" height="723"/></clipPath><clipPath id="clip1"><rect x="75" y="74" width="241" height="301"/></clipPath><clipPath id="clip2"><rect x="75" y="74" width="241" height="302"/></clipPath><clipPath id="clip3"><rect x="75" y="74" width="241" height="302"/></clipPath></defs><g clip-path="url(#clip0)" transform="translate(1 1)"><rect x="0" y="361" width="1280" height="360" fill="#3F48CC"/><rect x="0" y="0" width="1280" height="360" fill="#FFC90E"/><rect x="0" y="248" width="1280" height="227" fill="#FFFFFF"/><path d="M503 360 640 0 777 360Z" fill="#3F48CC" fill-rule="evenodd"/><path d="M777 360 640 720 503 360Z" fill="#FFC90E" fill-rule="evenodd"/><g clip-path="url(#clip1)"><g clip-path="url(#clip2)"><g clip-path="url(#clip3)"><path d="M250.136 153.545 250.136 334.351C250.136 380.937 211.97 453.944 130.037 453.944 48.1036 453.944 9.93694 380.937 9.93694 334.351L9.93694 153.545Z" stroke="#000000" stroke-width="0.600649" fill="#C8102E" fill-rule="evenodd" transform="matrix(1.00083 0 0 1 65.3554 -79.2447)"/><path d="M29.4938 165.719C32.2463 167.61 36.3022 168.582 36.3022 168.582 36.3022 168.582 40.3581 167.61 43.1106 165.719 42.1629 168.921 42.4914 173.079 42.4914 173.079 42.4914 173.079 44.6696 176.636 47.3184 178.669 43.9802 178.758 40.1273 180.355 40.1273 180.355 40.1273 180.355 37.4176 183.526 36.3022 186.673 35.1868 183.526 32.4771 180.355 32.4771 180.355 32.4771 180.355 28.6242 178.758 25.286 178.669 27.9348 176.636 30.113 173.079 30.113 173.079 30.113 173.079 30.4415 168.921 29.4938 165.719Z" stroke="#000000" stroke-width="0.600498" fill="#FFFFFF" fill-rule="evenodd" transform="matrix(1.00083 0 0 1 124.579 -79.2447)"/><path d="M36.2696 165.979C34.3796 165.997 32.857 167.535 32.8575 169.425 32.8577 169.851 32.9369 170.274 33.0911 170.671 32.7609 170.401 32.3835 170.195 31.9782 170.063 30.1689 169.476 28.2256 170.466 27.6377 172.275 27.0499 174.084 28.04 176.028 29.8492 176.616 30.2545 176.747 30.6806 176.802 31.106 176.778 30.7478 177.009 30.4354 177.304 30.1847 177.648 29.0661 179.187 29.4068 181.341 30.9457 182.46 30.946 182.46 30.9463 182.461 30.9467 182.461 32.4856 183.579 34.6399 183.239 35.7585 181.7 35.7587 181.699 35.759 181.699 35.7592 181.699 36.0095 181.354 36.1935 180.965 36.3019 180.552 36.4106 180.965 36.5951 181.354 36.8458 181.699 37.9641 183.238 40.1181 183.579 41.6572 182.461 43.1964 181.343 43.5379 179.188 42.4198 177.649 42.4196 177.649 42.4193 177.649 42.4191 177.648 42.1685 177.303 41.8562 177.008 41.4978 176.777 41.9231 176.802 42.3493 176.747 42.7546 176.616 44.5641 176.028 45.5549 174.085 44.9675 172.275 44.9674 172.275 44.9674 172.275 44.9674 172.275 44.3795 170.466 42.4361 169.475 40.6267 170.063 40.6263 170.063 40.626 170.063 40.6256 170.063 40.2208 170.195 39.8438 170.401 39.5139 170.67 39.668 170.273 39.7472 169.851 39.7475 169.425 39.7479 167.522 38.2059 165.98 36.3034 165.979 36.3029 165.979 36.3024 165.979 36.3019 165.979 36.2911 165.979 36.2803 165.979 36.2696 165.979ZM36.2839 171.816C36.2899 171.816 36.2959 171.816 36.3019 171.816 38.1098 171.816 39.5757 173.281 39.5762 175.089 39.5762 175.089 39.5762 175.09 39.5762 175.09 39.5759 176.898 38.1101 178.364 36.3022 178.363 36.3021 178.363 36.302 178.363 36.3019 178.363 34.4944 178.363 33.0291 176.898 33.0289 175.09 33.0284 173.289 34.4829 171.826 36.2839 171.816Z" stroke="#000000" stroke-width="0.600499" fill="#FFFFFF" fill-rule="evenodd" transform="matrix(1.00083 0 0 1 124.579 -79.2447)"/><path d="M29.4938 165.719C32.2463 167.61 36.3022 168.582 36.3022 168.582 36.3022 168.582 40.3581 167.61 43.1106 165.719 42.1629 168.921 42.4914 173.079 42.4914 173.079 42.4914 173.079 44.6696 176.636 47.3184 178.669 43.9802 178.758 40.1273 180.355 40.1273 180.355 40.1273 180.355 37.4176 183.526 36.3022 186.673 35.1868 183.526 32.4771 180.355 32.4771 180.355 32.4771 180.355 28.6242 178.758 25.286 178.669 27.9348 176.636 30.113 173.079 30.113 173.079 30.113 173.079 30.4415 168.921 29.4938 165.719Z" stroke="#000000" stroke-width="0.600498" fill="#FFFFFF" fill-rule="evenodd" transform="matrix(1.00083 0 0 1 65.1655 -79.2447)"/><path d="M36.2696 165.979C34.3796 165.997 32.857 167.535 32.8575 169.425 32.8577 169.851 32.9369 170.274 33.0911 170.671 32.7609 170.401 32.3835 170.195 31.9782 170.063 30.1689 169.476 28.2256 170.466 27.6377 172.275 27.0499 174.084 28.04 176.028 29.8492 176.616 30.2545 176.747 30.6806 176.802 31.106 176.778 30.7478 177.009 30.4354 177.304 30.1847 177.648 29.0661 179.187 29.4068 181.341 30.9457 182.46 30.946 182.46 30.9463 182.461 30.9467 182.461 32.4856 183.579 34.6399 183.239 35.7585 181.7 35.7587 181.699 35.759 181.699 35.7592 181.699 36.0095 181.354 36.1935 180.965 36.3019 180.552 36.4106 180.965 36.5951 181.354 36.8458 181.699 37.9641 183.238 40.1181 183.579 41.6572 182.461 43.1964 181.343 43.5379 179.188 42.4198 177.649 42.4196 177.649 42.4193 177.649 42.4191 177.648 42.1685 177.303 41.8562 177.008 41.4978 176.777 41.9231 176.802 42.3493 176.747 42.7546 176.616 44.5641 176.028 45.5549 174.085 44.9675 172.275 44.9674 172.275 44.9674 172.275 44.9674 172.275 44.3795 170.466 42.4361 169.475 40.6267 170.063 40.6263 170.063 40.626 170.063 40.6256 170.063 40.2208 170.195 39.8438 170.401 39.5139 170.67 39.668 170.273 39.7472 169.851 39.7475 169.425 39.7479 167.522 38.2059 165.98 36.3034 165.979 36.3029 165.979 36.3024 165.979 36.3019 165.979 36.2911 165.979 36.2803 165.979 36.2696 165.979ZM36.2839 171.816C36.2899 171.816 36.2959 171.816 36.3019 171.816 38.1098 171.816 39.5757 173.281 39.5762 175.089 39.5762 175.089 39.5762 175.09 39.5762 175.09 39.5759 176.898 38.1101 178.364 36.3022 178.363 36.3021 178.363 36.302 178.363 36.3019 178.363 34.4944 178.363 33.0291 176.898 33.0289 175.09 33.0284 173.289 34.4829 171.826 36.2839 171.816Z" stroke="#000000" stroke-width="0.600499" fill="#FFFFFF" fill-rule="evenodd" transform="matrix(1.00083 0 0 1 65.1655 -79.2447)"/><path d="M29.4938 165.719C32.2463 167.61 36.3022 168.582 36.3022 168.582 36.3022 168.582 40.3581 167.61 43.1106 165.719 42.1629 168.921 42.4914 173.079 42.4914 173.079 42.4914 173.079 44.6696 176.636 47.3184 178.669 43.9802 178.758 40.1273 180.355 40.1273 180.355 40.1273 180.355 37.4176 183.526 36.3022 186.673 35.1868 183.526 32.4771 180.355 32.4771 180.355 32.4771 180.355 28.6242 178.758 25.286 178.669 27.9348 176.636 30.113 173.079 30.113 173.079 30.113 173.079 30.4415 168.921 29.4938 165.719Z" stroke="#000000" stroke-width="0.600498" fill="#FFFFFF" fill-rule="evenodd" transform="matrix(1.00083 0 0 1 253.17 -79.2447)"/><path d="M36.2696 165.979C34.3796 165.997 32.857 167.535 32.8575 169.425 32.8577 169.851 32.9369 170.274 33.0911 170.671 32.7609 170.401 32.3835 170.195 31.9782 170.063 30.1689 169.476 28.2256 170.466 27.6377 172.275 27.0499 174.084 28.04 176.028 29.8492 176.616 30.2545 176.747 30.6806 176.802 31.106 176.778 30.7478 177.009 30.4354 177.304 30.1847 177.648 29.0661 179.187 29.4068 181.341 30.9457 182.46 30.946 182.46 30.9463 182.461 30.9467 182.461 32.4856 183.579 34.6399 183.239 35.7585 181.7 35.7587 181.699 35.759 181.699 35.7592 181.699 36.0095 181.354 36.1935 180.965 36.3019 180.552 36.4106 180.965 36.5951 181.354 36.8458 181.699 37.9641 183.238 40.1181 183.579 41.6572 182.461 43.1964 181.343 43.5379 179.188 42.4198 177.649 42.4196 177.649 42.4193 177.649 42.4191 177.648 42.1685 177.303 41.8562 177.008 41.4978 176.777 41.9231 176.802 42.3493 176.747 42.7546 176.616 44.5641 176.028 45.5549 174.085 44.9675 172.275 44.9674 172.275 44.9674 172.275 44.9674 172.275 44.3795 170.466 42.4361 169.475 40.6267 170.063 40.6263 170.063 40.626 170.063 40.6256 170.063 40.2208 170.195 39.8438 170.401 39.5139 170.67 39.668 170.273 39.7472 169.851 39.7475 169.425 39.7479 167.522 38.2059 165.98 36.3034 165.979 36.3029 165.979 36.3024 165.979 36.3019 165.979 36.2911 165.979 36.2803 165.979 36.2696 165.979ZM36.2839 171.816C36.2899 171.816 36.2959 171.816 36.3019 171.816 38.1098 171.816 39.5757 173.281 39.5762 175.089 39.5762 175.089 39.5762 175.09 39.5762 175.09 39.5759 176.898 38.1101 178.364 36.3022 178.363 36.3021 178.363 36.302 178.363 36.3019 178.363 34.4944 178.363 33.0291 176.898 33.0289 175.09 33.0284 173.289 34.4829 171.826 36.2839 171.816Z" stroke="#000000" stroke-width="0.600499" fill="#FFFFFF" fill-rule="evenodd" transform="matrix(1.00083 0 0 1 253.17 -79.2447)"/><path d="M29.4938 165.719C32.2463 167.61 36.3022 168.582 36.3022 168.582 36.3022 168.582 40.3581 167.61 43.1106 165.719 42.1629 168.921 42.4914 173.079 42.4914 173.079 42.4914 173.079 44.6696 176.636 47.3184 178.669 43.9802 178.758 40.1273 180.355 40.1273 180.355 40.1273 180.355 37.4176 183.526 36.3022 186.673 35.1868 183.526 32.4771 180.355 32.4771 180.355 32.4771 180.355 28.6242 178.758 25.286 178.669 27.9348 176.636 30.113 173.079 30.113 173.079 30.113 173.079 30.4415 168.921 29.4938 165.719Z" stroke="#000000" stroke-width="0.600498" fill="#FFFFFF" fill-rule="evenodd" transform="matrix(1.00083 0 0 1 229.142 -21.555)"/><path d="M36.2696 165.979C34.3796 165.997 32.857 167.535 32.8575 169.425 32.8577 169.851 32.9369 170.274 33.0911 170.671 32.7609 170.401 32.3835 170.195 31.9782 170.063 30.1689 169.476 28.2256 170.466 27.6377 172.275 27.0499 174.084 28.04 176.028 29.8492 176.616 30.2545 176.747 30.6806 176.802 31.106 176.778 30.7478 177.009 30.4354 177.304 30.1847 177.648 29.0661 179.187 29.4068 181.341 30.9457 182.46 30.946 182.46 30.9463 182.461 30.9467 182.461 32.4856 183.579 34.6399 183.239 35.7585 181.7 35.7587 181.699 35.759 181.699 35.7592 181.699 36.0095 181.354 36.1935 180.965 36.3019 180.552 36.4106 180.965 36.5951 181.354 36.8458 181.699 37.9641 183.238 40.1181 183.579 41.6572 182.461 43.1964 181.343 43.5379 179.188 42.4198 177.649 42.4196 177.649 42.4193 177.649 42.4191 177.648 42.1685 177.303 41.8562 177.008 41.4978 176.777 41.9231 176.802 42.3493 176.747 42.7546 176.616 44.5641 176.028 45.5549 174.085 44.9675 172.275 44.9674 172.275 44.9674 172.275 44.9674 172.275 44.3795 170.466 42.4361 169.475 40.6267 170.063 40.6263 170.063 40.626 170.063 40.6256 170.063 40.2208 170.195 39.8438 170.401 39.5139 170.67 39.668 170.273 39.7472 169.851 39.7475 169.425 39.7479 167.522 38.2059 165.98 36.3034 165.979 36.3029 165.979 36.3024 165.979 36.3019 165.979 36.2911 165.979 36.2803 165.979 36.2696 165.979ZM36.2839 171.816C36.2899 171.816 36.2959 171.816 36.3019 171.816 38.1098 171.816 39.5757 173.281 39.5762 175.089 39.5762 175.089 39.5762 175.09 39.5762 175.09 39.5759 176.898 38.1101 178.364 36.3022 178.363 36.3021 178.363 36.302 178.363 36.3019 178.363 34.4944 178.363 33.0291 176.898 33.0289 175.09 33.0284 173.289 34.4829 171.826 36.2839 171.816Z" stroke="#000000" stroke-width="0.600499" fill="#FFFFFF" fill-rule="evenodd" transform="matrix(1.00083 0 0 1 229.142 -21.555)"/><path d="M29.4938 165.719C32.2463 167.61 36.3022 168.582 36.3022 168.582 36.3022 168.582 40.3581 167.61 43.1106 165.719 42.1629 168.921 42.4914 173.079 42.4914 173.079 42.4914 173.079 44.6696 176.636 47.3184 178.669 43.9802 178.758 40.1273 180.355 40.1273 180.355 40.1273 180.355 37.4176 183.526 36.3022 186.673 35.1868 183.526 32.4771 180.355 32.4771 180.355 32.4771 180.355 28.6242 178.758 25.286 178.669 27.9348 176.636 30.113 173.079 30.113 173.079 30.113 173.079 30.4415 168.921 29.4938 165.719Z" stroke="#000000" stroke-width="0.600498" fill="#FFFFFF" fill-rule="evenodd" transform="matrix(1.00083 0 0 1 65.1655 -4.00136)"/><path d="M36.2696 165.979C34.3796 165.997 32.857 167.535 32.8575 169.425 32.8577 169.851 32.9369 170.274 33.0911 170.671 32.7609 170.401 32.3835 170.195 31.9782 170.063 30.1689 169.476 28.2256 170.466 27.6377 172.275 27.0499 174.084 28.04 176.028 29.8492 176.616 30.2545 176.747 30.6806 176.802 31.106 176.778 30.7478 177.009 30.4354 177.304 30.1847 177.648 29.0661 179.187 29.4068 181.341 30.9457 182.46 30.946 182.46 30.9463 182.461 30.9467 182.461 32.4856 183.579 34.6399 183.239 35.7585 181.7 35.7587 181.699 35.759 181.699 35.7592 181.699 36.0095 181.354 36.1935 180.965 36.3019 180.552 36.4106 180.965 36.5951 181.354 36.8458 181.699 37.9641 183.238 40.1181 183.579 41.6572 182.461 43.1964 181.343 43.5379 179.188 42.4198 177.649 42.4196 177.649 42.4193 177.649 42.4191 177.648 42.1685 177.303 41.8562 177.008 41.4978 176.777 41.9231 176.802 42.3493 176.747 42.7546 176.616 44.5641 176.028 45.5549 174.085 44.9675 172.275 44.9674 172.275 44.9674 172.275 44.9674 172.275 44.3795 170.466 42.4361 169.475 40.6267 170.063 40.6263 170.063 40.626 170.063 40.6256 170.063 40.2208 170.195 39.8438 170.401 39.5139 170.67 39.668 170.273 39.7472 169.851 39.7475 169.425 39.7479 167.522 38.2059 165.98 36.3034 165.979 36.3029 165.979 36.3024 165.979 36.3019 165.979 36.2911 165.979 36.2803 165.979 36.2696 165.979ZM36.2839 171.816C36.2899 171.816 36.2959 171.816 36.3019 171.816 38.1098 171.816 39.5757 173.281 39.5762 175.089 39.5762 175.089 39.5762 175.09 39.5762 175.09 39.5759 176.898 38.1101 178.364 36.3022 178.363 36.3021 178.363 36.302 178.363 36.3019 178.363 34.4944 178.363 33.0291 176.898 33.0289 175.09 33.0284 173.289 34.4829 171.826 36.2839 171.816Z" stroke="#000000" stroke-width="0.600499" fill="#FFFFFF" fill-rule="evenodd" transform="matrix(1.00083 0 0 1 65.1655 -4.00136)"/><path d="M29.4938 165.719C32.2463 167.61 36.3022 168.582 36.3022 168.582 36.3022 168.582 40.3581 167.61 43.1106 165.719 42.1629 168.921 42.4914 173.079 42.4914 173.079 42.4914 173.079 44.6696 176.636 47.3184 178.669 43.9802 178.758 40.1273 180.355 40.1273 180.355 40.1273 180.355 37.4176 183.526 36.3022 186.673 35.1868 183.526 32.4771 180.355 32.4771 180.355 32.4771 180.355 28.6242 178.758 25.286 178.669 27.9348 176.636 30.113 173.079 30.113 173.079 30.113 173.079 30.4415 168.921 29.4938 165.719Z" stroke="#000000" stroke-width="0.600498" fill="#FFFFFF" fill-rule="evenodd" transform="matrix(1.00083 0 0 1 65.1655 72.782)"/><path d="M36.2696 165.979C34.3796 165.997 32.857 167.535 32.8575 169.425 32.8577 169.851 32.9369 170.274 33.0911 170.671 32.7609 170.401 32.3835 170.195 31.9782 170.063 30.1689 169.476 28.2256 170.466 27.6377 172.275 27.0499 174.084 28.04 176.028 29.8492 176.616 30.2545 176.747 30.6806 176.802 31.106 176.778 30.7478 177.009 30.4354 177.304 30.1847 177.648 29.0661 179.187 29.4068 181.341 30.9457 182.46 30.946 182.46 30.9463 182.461 30.9467 182.461 32.4856 183.579 34.6399 183.239 35.7585 181.7 35.7587 181.699 35.759 181.699 35.7592 181.699 36.0095 181.354 36.1935 180.965 36.3019 180.552 36.4106 180.965 36.5951 181.354 36.8458 181.699 37.9641 183.238 40.1181 183.579 41.6572 182.461 43.1964 181.343 43.5379 179.188 42.4198 177.649 42.4196 177.649 42.4193 177.649 42.4191 177.648 42.1685 177.303 41.8562 177.008 41.4978 176.777 41.9231 176.802 42.3493 176.747 42.7546 176.616 44.5641 176.028 45.5549 174.085 44.9675 172.275 44.9674 172.275 44.9674 172.275 44.9674 172.275 44.3795 170.466 42.4361 169.475 40.6267 170.063 40.6263 170.063 40.626 170.063 40.6256 170.063 40.2208 170.195 39.8438 170.401 39.5139 170.67 39.668 170.273 39.7472 169.851 39.7475 169.425 39.7479 167.522 38.2059 165.98 36.3034 165.979 36.3029 165.979 36.3024 165.979 36.3019 165.979 36.2911 165.979 36.2803 165.979 36.2696 165.979ZM36.2839 171.816C36.2899 171.816 36.2959 171.816 36.3019 171.816 38.1098 171.816 39.5757 173.281 39.5762 175.089 39.5762 175.089 39.5762 175.09 39.5762 175.09 39.5759 176.898 38.1101 178.364 36.3022 178.363 36.3021 178.363 36.302 178.363 36.3019 178.363 34.4944 178.363 33.0291 176.898 33.0289 175.09 33.0284 173.289 34.4829 171.826 36.2839 171.816Z" stroke="#000000" stroke-width="0.600499" fill="#FFFFFF" fill-rule="evenodd" transform="matrix(1.00083 0 0 1 65.1655 72.782)"/><path d="M29.4938 165.719C32.2463 167.61 36.3022 168.582 36.3022 168.582 36.3022 168.582 40.3581 167.61 43.1106 165.719 42.1629 168.921 42.4914 173.079 42.4914 173.079 42.4914 173.079 44.6696 176.636 47.3184 178.669 43.9802 178.758 40.1273 180.355 40.1273 180.355 40.1273 180.355 37.4176 183.526 36.3022 186.673 35.1868 183.526 32.4771 180.355 32.4771 180.355 32.4771 180.355 28.6242 178.758 25.286 178.669 27.9348 176.636 30.113 173.079 30.113 173.079 30.113 173.079 30.4415 168.921 29.4938 165.719Z" stroke="#000000" stroke-width="0.600498" fill="#FFFFFF" fill-rule="evenodd" transform="matrix(1.00083 0 0 1 124.579 72.782)"/><path d="M36.2696 165.979C34.3796 165.997 32.857 167.535 32.8575 169.425 32.8577 169.851 32.9369 170.274 33.0911 170.671 32.7609 170.401 32.3835 170.195 31.9782 170.063 30.1689 169.476 28.2256 170.466 27.6377 172.275 27.0499 174.084 28.04 176.028 29.8492 176.616 30.2545 176.747 30.6806 176.802 31.106 176.778 30.7478 177.009 30.4354 177.304 30.1847 177.648 29.0661 179.187 29.4068 181.341 30.9457 182.46 30.946 182.46 30.9463 182.461 30.9467 182.461 32.4856 183.579 34.6399 183.239 35.7585 181.7 35.7587 181.699 35.759 181.699 35.7592 181.699 36.0095 181.354 36.1935 180.965 36.3019 180.552 36.4106 180.965 36.5951 181.354 36.8458 181.699 37.9641 183.238 40.1181 183.579 41.6572 182.461 43.1964 181.343 43.5379 179.188 42.4198 177.649 42.4196 177.649 42.4193 177.649 42.4191 177.648 42.1685 177.303 41.8562 177.008 41.4978 176.777 41.9231 176.802 42.3493 176.747 42.7546 176.616 44.5641 176.028 45.5549 174.085 44.9675 172.275 44.9674 172.275 44.9674 172.275 44.9674 172.275 44.3795 170.466 42.4361 169.475 40.6267 170.063 40.6263 170.063 40.626 170.063 40.6256 170.063 40.2208 170.195 39.8438 170.401 39.5139 170.67 39.668 170.273 39.7472 169.851 39.7475 169.425 39.7479 167.522 38.2059 165.98 36.3034 165.979 36.3029 165.979 36.3024 165.979 36.3019 165.979 36.2911 165.979 36.2803 165.979 36.2696 165.979ZM36.2839 171.816C36.2899 171.816 36.2959 171.816 36.3019 171.816 38.1098 171.816 39.5757 173.281 39.5762 175.089 39.5762 175.089 39.5762 175.09 39.5762 175.09 39.5759 176.898 38.1101 178.364 36.3022 178.363 36.3021 178.363 36.302 178.363 36.3019 178.363 34.4944 178.363 33.0291 176.898 33.0289 175.09 33.0284 173.289 34.4829 171.826 36.2839 171.816Z" stroke="#000000" stroke-width="0.600499" fill="#FFFFFF" fill-rule="evenodd" transform="matrix(1.00083 0 0 1 124.579 72.782)"/><path d="M29.4938 165.719C32.2463 167.61 36.3022 168.582 36.3022 168.582 36.3022 168.582 40.3581 167.61 43.1106 165.719 42.1629 168.921 42.4914 173.079 42.4914 173.079 42.4914 173.079 44.6696 176.636 47.3184 178.669 43.9802 178.758 40.1273 180.355 40.1273 180.355 40.1273 180.355 37.4176 183.526 36.3022 186.673 35.1868 183.526 32.4771 180.355 32.4771 180.355 32.4771 180.355 28.6242 178.758 25.286 178.669 27.9348 176.636 30.113 173.079 30.113 173.079 30.113 173.079 30.4415 168.921 29.4938 165.719Z" stroke="#000000" stroke-width="0.600498" fill="#FFFFFF" fill-rule="evenodd" transform="matrix(1.00083 0 0 1 253.17 72.782)"/><path d="M36.2696 165.979C34.3796 165.997 32.857 167.535 32.8575 169.425 32.8577 169.851 32.9369 170.274 33.0911 170.671 32.7609 170.401 32.3835 170.195 31.9782 170.063 30.1689 169.476 28.2256 170.466 27.6377 172.275 27.0499 174.084 28.04 176.028 29.8492 176.616 30.2545 176.747 30.6806 176.802 31.106 176.778 30.7478 177.009 30.4354 177.304 30.1847 177.648 29.0661 179.187 29.4068 181.341 30.9457 182.46 30.946 182.46 30.9463 182.461 30.9467 182.461 32.4856 183.579 34.6399 183.239 35.7585 181.7 35.7587 181.699 35.759 181.699 35.7592 181.699 36.0095 181.354 36.1935 180.965 36.3019 180.552 36.4106 180.965 36.5951 181.354 36.8458 181.699 37.9641 183.238 40.1181 183.579 41.6572 182.461 43.1964 181.343 43.5379 179.188 42.4198 177.649 42.4196 177.649 42.4193 177.649 42.4191 177.648 42.1685 177.303 41.8562 177.008 41.4978 176.777 41.9231 176.802 42.3493 176.747 42.7546 176.616 44.5641 176.028 45.5549 174.085 44.9675 172.275 44.9674 172.275 44.9674 172.275 44.9674 172.275 44.3795 170.466 42.4361 169.475 40.6267 170.063 40.6263 170.063 40.626 170.063 40.6256 170.063 40.2208 170.195 39.8438 170.401 39.5139 170.67 39.668 170.273 39.7472 169.851 39.7475 169.425 39.7479 167.522 38.2059 165.98 36.3034 165.979 36.3029 165.979 36.3024 165.979 36.3019 165.979 36.2911 165.979 36.2803 165.979 36.2696 165.979ZM36.2839 171.816C36.2899 171.816 36.2959 171.816 36.3019 171.816 38.1098 171.816 39.5757 173.281 39.5762 175.089 39.5762 175.089 39.5762 175.09 39.5762 175.09 39.5759 176.898 38.1101 178.364 36.3022 178.363 36.3021 178.363 36.302 178.363 36.3019 178.363 34.4944 178.363 33.0291 176.898 33.0289 175.09 33.0284 173.289 34.4829 171.826 36.2839 171.816Z" stroke="#000000" stroke-width="0.600499" fill="#FFFFFF" fill-rule="evenodd" transform="matrix(1.00083 0 0 1 253.17 72.782)"/><path d="M29.4938 165.719C32.2463 167.61 36.3022 168.582 36.3022 168.582 36.3022 168.582 40.3581 167.61 43.1106 165.719 42.1629 168.921 42.4914 173.079 42.4914 173.079 42.4914 173.079 44.6696 176.636 47.3184 178.669 43.9802 178.758 40.1273 180.355 40.1273 180.355 40.1273 180.355 37.4176 183.526 36.3022 186.673 35.1868 183.526 32.4771 180.355 32.4771 180.355 32.4771 180.355 28.6242 178.758 25.286 178.669 27.9348 176.636 30.113 173.079 30.113 173.079 30.113 173.079 30.4415 168.921 29.4938 165.719Z" stroke="#000000" stroke-width="0.600498" fill="#FFFFFF" fill-rule="evenodd" transform="matrix(1.00083 0 0 1 159.168 132.331)"/><path d="M36.2696 165.979C34.3796 165.997 32.857 167.535 32.8575 169.425 32.8577 169.851 32.9369 170.274 33.0911 170.671 32.7609 170.401 32.3835 170.195 31.9782 170.063 30.1689 169.476 28.2256 170.466 27.6377 172.275 27.0499 174.084 28.04 176.028 29.8492 176.616 30.2545 176.747 30.6806 176.802 31.106 176.778 30.7478 177.009 30.4354 177.304 30.1847 177.648 29.0661 179.187 29.4068 181.341 30.9457 182.46 30.946 182.46 30.9463 182.461 30.9467 182.461 32.4856 183.579 34.6399 183.239 35.7585 181.7 35.7587 181.699 35.759 181.699 35.7592 181.699 36.0095 181.354 36.1935 180.965 36.3019 180.552 36.4106 180.965 36.5951 181.354 36.8458 181.699 37.9641 183.238 40.1181 183.579 41.6572 182.461 43.1964 181.343 43.5379 179.188 42.4198 177.649 42.4196 177.649 42.4193 177.649 42.4191 177.648 42.1685 177.303 41.8562 177.008 41.4978 176.777 41.9231 176.802 42.3493 176.747 42.7546 176.616 44.5641 176.028 45.5549 174.085 44.9675 172.275 44.9674 172.275 44.9674 172.275 44.9674 172.275 44.3795 170.466 42.4361 169.475 40.6267 170.063 40.6263 170.063 40.626 170.063 40.6256 170.063 40.2208 170.195 39.8438 170.401 39.5139 170.67 39.668 170.273 39.7472 169.851 39.7475 169.425 39.7479 167.522 38.2059 165.98 36.3034 165.979 36.3029 165.979 36.3024 165.979 36.3019 165.979 36.2911 165.979 36.2803 165.979 36.2696 165.979ZM36.2839 171.816C36.2899 171.816 36.2959 171.816 36.3019 171.816 38.1098 171.816 39.5757 173.281 39.5762 175.089 39.5762 175.089 39.5762 175.09 39.5762 175.09 39.5759 176.898 38.1101 178.364 36.3022 178.363 36.3021 178.363 36.302 178.363 36.3019 178.363 34.4944 178.363 33.0291 176.898 33.0289 175.09 33.0284 173.289 34.4829 171.826 36.2839 171.816Z" stroke="#000000" stroke-width="0.600499" fill="#FFFFFF" fill-rule="evenodd" transform="matrix(1.00083 0 0 1 159.168 132.331)"/><path d="M40.3084 194.835 42.7298 192.414C44.1823 190.961 46.521 190.961 47.9735 192.414L50.395 194.835C51.8474 196.288 51.8474 198.626 50.395 200.079L47.9735 202.5C46.521 203.953 44.1823 203.953 42.7298 202.5L40.3084 200.079C38.8559 198.626 38.8559 196.288 40.3084 194.835Z" stroke="#000000" stroke-width="0.600498" stroke-linecap="round" fill="#FFC72C" fill-rule="evenodd" transform="matrix(1.00083 0 0 1 65.3554 -79.2447)"/><path d="M100.261 257.893 72.06 243.992 66.5042 215.508 65.3134 213.81C72.0843 210.233 74.0319 203.67 74.0319 203.67L73.8546 190.436C69.94 187.826 66.2961 184.554 66.2961 184.554 66.0008 185.156 65.8179 185.736 65.7127 186.292L65.6851 186.399C65.6916 186.36 65.6934 186.323 65.7007 186.284 65.7007 186.284 63.3046 187.758 63.3046 188.866L63.3046 189.772C63.3046 188.665 60.9097 187.191 60.9097 187.191 60.9097 187.191 58.5148 188.665 58.5148 189.772L58.5148 190.679C58.5148 189.572 56.12 188.098 56.12 188.098 56.12 188.098 53.7251 189.572 53.7251 190.679L53.7251 191.586C53.7251 190.479 51.3302 189.004 51.3302 189.004 51.3302 189.004 48.9341 190.479 48.9341 191.586L48.9341 206.943C48.9341 206.943 49.607 206.613 50.4484 205.995 50.5988 207.529 51.3678 211.401 55.3748 213.932L53.8391 215.631 54.6412 250.406 86.6217 275.183 103.992 267.394Z" stroke="#000000" stroke-width="0.600499" fill="#FFFFFF" fill-rule="evenodd" transform="matrix(1.00083 0 0 1 65.3554 -79.2447)"/><path d="M63.3046 189.772 63.3046 204.489C65.7906 202.255 67.5101 201.72 67.5101 201.72 67.5101 201.72 66.8296 197.552 67.8979 192.478 67.8979 192.478 65.0184 189.926 65.7007 186.284M58.5148 190.679 58.5149 206.942C58.5149 206.942 63.3051 204.589 63.3051 200.71M53.7251 191.586 53.7247 206.942C53.7247 206.942 58.5149 204.589 58.5149 200.71M50.4484 205.995C51.8385 204.952 53.7247 203.075 53.7247 200.71" stroke="#000000" stroke-width="0.600499" stroke-linecap="square" fill="none" fill-rule="evenodd" transform="matrix(1.00083 0 0 1 65.3554 -79.2447)"/><path d="M77.2712 205.745C77.2712 205.745 86.2575 203.667 91.0343 203.604L202.813 202.121C204.741 202.095 210.084 199.528 214.326 197.157 210.084 194.786 204.741 192.819 202.813 192.793L91.0343 191.31C86.2575 191.247 77.2712 189.169 77.2712 189.169Z" stroke="#000000" stroke-width="0.600498" fill="#FFFFFF" fill-rule="evenodd" transform="matrix(1.00083 0 0 1 65.3554 -79.2447)"/><path d="M72.4683 177.441C72.4683 177.441 73.7146 176.916 76.8521 176.916 79.9897 176.916 81.236 177.441 81.236 177.441 78.5653 190.022 81.2258 197.157 81.2258 197.157 81.2258 197.157 78.5653 203.691 81.236 216.272 81.236 216.272 79.9897 216.797 76.8521 216.797 73.7146 216.797 72.4683 216.272 72.4683 216.272 75.139 203.691 72.4785 197.157 72.4785 197.157 72.4785 197.157 75.139 190.022 72.4683 177.441Z" stroke="#000000" stroke-width="0.600498" fill="#FFC72C" fill-rule="evenodd" transform="matrix(1.00083 0 0 1 65.3554 -79.2447)"/><path d="M53.9585 213.285 67.4748 213.285C68.5642 213.285 69.4413 214.162 69.4413 215.252L69.4413 216.857C69.4413 217.947 68.5642 218.824 67.4748 218.824L53.9585 218.824C52.869 218.824 51.9919 217.947 51.9919 216.857L51.9919 215.252C51.9919 214.162 52.869 213.285 53.9585 213.285Z" stroke="#000000" stroke-width="0.600498" stroke-linecap="round" fill="#FFC72C" fill-rule="evenodd" transform="matrix(1.00083 0 0 1 65.3554 -79.2447)"/><path d="M71.1625 249.573C79.9762 250.552 81.3116 244.766 81.3116 244.766 76.7335 244.011 73.827 240.1 73.3882 235.507 68.3136 237.02 67.0672 243.786 67.0672 243.786L52.3777 243.786 53.8912 255.627 64.8415 260.791C66.6664 256.992 68.7169 252.927 71.1625 249.573Z" stroke="#000000" stroke-width="0.600498" fill="#FFC72C" fill-rule="evenodd" transform="matrix(1.00083 0 0 1 65.3554 -79.2447)"/><path d="M63.4967 204.726 63.1118 204.251C60.0046 207.151 59.6184 209.659 59.6184 209.659 59.6184 209.659 61.2459 206.797 63.4967 204.726Z" fill-rule="evenodd" transform="matrix(1.00083 0 0 1 65.3554 -79.2447)"/><path d="M73.108 405.116C73.108 405.116 55.7333 394.162 51.3267 392.022 46.9201 389.881 45.0315 389.63 42.1357 391.392 39.24 393.155 41.3803 395.547 41.3803 395.547 39.24 395.799 36.9737 394.666 36.0924 392.148 35.211 389.63 38.6104 387.237 38.6104 387.237 36.7219 384.971 37.7291 381.446 43.0171 380.187 48.305 378.928 51.2008 376.662 51.2008 376.662 51.2008 376.662 52.0821 380.187 49.4381 382.075 49.4381 382.075 54.852 383.209 61.5249 386.986 68.1978 390.763 79.4032 395.547 79.4032 395.547Z" stroke="#000000" stroke-width="0.600498" fill="#FFC72C" fill-rule="evenodd" transform="matrix(1.00083 0 0 1 65.3554 -79.2447)"/><path d="M80.5783 395.505C80.5783 395.505 106.563 410.11 132.217 410.11 157.87 410.11 172.74 404.318 179.035 401.549 179.035 401.549 186.589 409.103 196.913 409.606 195.201 411.675 174.315 427.113 139.807 427.085 101.59 427.055 74.0313 406.081 74.0313 406.081Z" stroke="#000000" stroke-width="0.600498" fill="#FFFFFF" fill-rule="evenodd" transform="matrix(1.00083 0 0 1 65.3554 -79.2447)"/><path d="M77.0008 405.594C75.574 408.234 72.5009 414.348 72.5009 414.348 72.5009 414.348 75.5816 415.385 75.1944 418.202 74.8073 421.018 72.1885 422 69.7774 420.901 67.3663 419.801 66.3551 417.469 67.7886 414.431 69.2221 411.393 71.8385 406.619 73.1162 403.716 74.3939 400.813 72.9541 398.57 72.9541 398.57 72.9541 398.57 76.3003 396.472 77.4727 394.587 78.637 392.716 82.1507 385.21 82.1507 385.21 80.9564 385.165 78.8917 384.083 79.2791 381.267 79.6664 378.45 82.4631 377.824 84.8742 378.924 87.2853 380.024 87.8514 382.623 86.6849 385.305 85.5185 387.987 82.635 393.829 81.3573 396.732 80.0796 399.635 81.2524 402.768 81.2524 402.768 81.2524 402.768 78.4277 402.954 77.0008 405.594Z" stroke="#000000" stroke-width="0.600498" fill="#FFC72C" fill-rule="evenodd" transform="matrix(1.00083 0 0 1 65.3554 -79.2447)"/><path d="M83.6378 384.282C83.6378 384.282 82.5748 385.136 81.298 384.723L82.1115 385.384C83.1093 385.208 83.6378 384.282 83.6378 384.282ZM72.5631 414.358C71.5559 414.468 70.9685 415.357 70.9685 415.357 70.9685 415.357 72.0843 414.575 73.331 415.072Z" fill-rule="evenodd" transform="matrix(1.00083 0 0 1 65.3554 -79.2447)"/><path d="M209.127 350.061C208.004 360.643 201.808 374.004 196.541 376.215 191.274 378.427 187.689 376.301 185.485 375.298 183.282 374.295 182.237 375.297 181.728 377.475 177.661 377.258 171.031 383.324 173.639 388.825 174.79 387.215 176.644 384.377 180.597 384.471 180.597 384.471 180.765 386.513 181.591 387.417 182.417 388.321 185.647 387.139 191.026 386.875 191.026 386.875 184.829 390.392 182.483 390.374 180.167 390.356 179.013 391.553 179.432 393.782 174.875 395.985 172.603 404.627 178.591 408.844 178.468 404.857 179.245 401.914 182.753 400.088 182.753 400.088 183.247 402.042 185.996 402.287 188.745 402.532 190.114 398.665 195.583 396.635 194.561 399.025 192.347 401.183 192.513 402.521 192.619 403.369 193.633 403.676 194.476 404.153 193.84 408.729 197.278 417.386 205.718 416.561 203.659 414.574 200.754 411.254 201.828 407.449 203.075 406.909 203.683 406.973 204.738 406.474 205.954 405.898 205.357 402.556 206.44 396.448 207.522 390.341 209.711 387.947 210.85 387.221 211.99 386.496 212.082 388.09 213.023 388.921 213.963 389.753 216.294 389.046 216.294 389.046 217.893 390.766 218.231 392.739 217.586 395.3 220.261 395.109 222.601 390.127 221.111 386.263 221.111 386.263 222.471 384.2 221.476 382.364 220.481 380.529 216.601 378.503 221.096 370.386 222.808 371.163 224.289 370.564 224.289 370.564L225.434 366.966C225.434 366.966 222.314 365.625 222.487 361.971 223.106 362.785 224.265 364.792 227.407 364.094L228.949 360.58C228.949 360.58 225.148 359.653 225.478 355.03 225.478 355.03 226.871 358.73 230.449 358.313L232.353 354.633C232.353 354.633 228.54 354.062 228.463 348.267 228.463 348.267 230.93 351.824 234.164 351.039L235.7 347.703C235.7 347.703 228.99 343.116 233.532 335.067L229.379 328.604C229.379 328.604 223.928 329.048 223.467 324.132 223.005 319.215 224.519 313.83 228.285 307.716 232.051 301.602 234.279 293.478 234.279 293.478L227.422 285.232 210.701 289.671C210.701 289.671 205.53 298.13 202.79 310.708 200.212 322.543 197.654 324.18 195.377 324.721 193.101 325.262 190.445 322.955 190.445 322.955L188.904 326.468C188.904 326.468 190.698 331.517 195.937 329.373 193.36 334.006 197.27 335.115 197.612 340.745 197.612 340.745 200.03 340.38 201.006 340.501 201.006 340.501 202.397 338.854 202.313 335.999 204.888 336.683 210.25 339.478 209.127 350.061Z" stroke="#000000" stroke-width="0.600731" fill="#FFC72C" fill-rule="evenodd" transform="matrix(0.730333 0.683172 -0.68374 0.729726 264.775 -130.555)"/><path d="M117.1 331.905 117.584 332.281C119.8 329.398 120.142 326.839 122.839 325.964 119.159 326.497 119.29 329.405 117.1 331.905ZM127.777 358.756 128.311 359.06C128.311 359.06 130.394 355.454 128.318 352.845 129.624 355.4 127.777 358.756 127.777 358.756ZM120.985 361.641 121.505 361.967C121.505 361.967 123.698 358.528 122.085 355.605 122.965 358.38 120.985 361.641 120.985 361.641ZM114.052 364.674 114.587 364.978C115.496 363.094 116.257 360.444 115.053 358.811 115.519 361.037 115 362.793 114.052 364.674ZM74.4409 361.215 74.2553 361.799C74.2553 361.799 76.6394 362.555 79.1139 362.431 76.7809 361.951 74.4409 361.215 74.4409 361.215ZM107.26 370.09 107.853 369.945C107.382 366.531 110.47 366.005 108.641 362.372 109.403 366.488 107.044 365.96 107.26 370.09ZM70.9317 371.444 71.0811 372.037C71.0811 372.037 75.4548 370.918 78.1381 369.551 75.3016 370.321 70.9317 371.444 70.9317 371.444Z" fill-rule="evenodd" transform="matrix(1.00083 0 0 1 65.3554 -79.2447)"/><path d="M159.73 307.289C159.73 307.289 157.463 308.17 156.078 310.31 156.078 310.31 164.041 312.236 167.514 319.547" stroke="#000000" stroke-width="0.600498" fill="none" fill-rule="evenodd" transform="matrix(1.00083 0 0 1 65.3554 -79.2447)"/><path d="M200.225 203.624C197.883 203.624 195.363 203.863 192.669 204.404 181.893 206.568 174.805 216.635 174.098 225.844 173.368 235.364 179.163 243.924 184.986 247.516 190.809 251.107 191.454 251.961 193.317 253.043 190.683 254.568 184.155 257.305 181.385 262.593 178.615 267.881 180.252 271.532 181.385 274.05 182.518 276.568 182 279.959 180.756 282.234L194.605 282.234C194.605 282.234 199.012 277.702 197.501 270.4 195.99 263.097 200.626 259.89 202.179 258.472 206.207 261.306 208.785 263.351 211.083 266.466 215.279 272.153 216.248 278.831 213.171 286.05 210.191 293.043 204.035 296.112 198.885 296.871 193.537 297.66 189.538 296.947 183.636 294.747 177.735 292.547 167.787 284.794 159.478 277.744 151.168 270.693 145.125 258.354 145.125 258.354L107.354 257.85 100.482 261.028C100.482 261.028 98.3529 267.089 89.9862 271.576 81.6196 276.063 71.8036 281.738 63.3166 283.054 54.8296 284.371 50.0674 280.052 47.2975 274.89 44.622 269.904 43.4271 270.291 41.3804 272.246 37.4456 269.066 29.8379 271.027 28.5386 276.526 30.414 275.897 33.9537 274.637 37.0998 277.03 37.0998 277.03 35.664 278.829 35.8035 280.045 35.9431 281.261 39.1137 283.703 44.6535 286.472 44.6535 286.472 39.7074 285.74 35.1506 283.335 30.749 281.012 29.7494 282.061 29.0178 284.448 23.9781 284.008 19.1393 289.506 21.2593 295.675 22.4633 294.105 24.697 291.335 28.6428 291.562 28.6428 291.562 28.0786 293.227 29.3772 294.41 30.6758 295.592 34.6916 294.157 39.8265 296.256 36.4872 297.322 34.3159 297.779 33.6111 298.927 33.1645 299.655 33.5692 300.371 33.9298 301.27 29.7319 304.093 29.4195 311.41 34.9433 314.879 34.8945 312.902 34.9817 309.343 38.1948 307.042 39.506 307.398 39.9298 308.068 41.7123 308.173 43.4947 308.277 45.5303 304.382 48.2763 302.874 51.0224 301.366 53.2091 301.06 54.5445 301.238 55.8799 301.416 55.2561 302.752 55.2561 303.731 55.2561 304.711 56.9478 305.245 56.9478 305.245 56.8588 306.998 55.88 308.31 53.6544 309.34 55.2569 310.371 59.9154 310.702 61.3099 307.025 61.3099 307.025 63.625 307.56 64.0701 305.69 64.5153 303.821 65.1386 298.479 76.3561 298.479 76.3561 298.479 76.5038 300.17 77.8393 301.238 77.8393 301.238 80.8665 301.149 82.9142 300.081 82.6473 295.446 84.0321 295.801 85.9404 292.87 85.9404 292.87 83.6263 296.965 86.6533 299.725L91.6383 298.389C90.8227 294.28 92.301 294.154 94.2201 290.555 94.2201 290.555 92.0837 295.363 96.4461 297.766L100.898 296.52C99.2718 292.079 99.8366 291.827 103.123 287.885 102.411 289.577 101.254 293.582 104.904 295.808L109.178 294.829C108.125 289.984 109.517 289.688 110.958 287.261 110.958 287.261 109.177 291.446 112.204 294.027 112.204 294.027 115.588 293.85 116.923 292.514 116.923 292.514 116.336 290.329 117.012 288.952 117.012 288.952 121.596 293.63 133.889 297.007 146.181 300.384 154.886 303.582 161.6 310.208 168.314 316.834 167.677 322.121 170.517 329.579 173.405 337.163 175.486 341.872 172.565 344.536 169.644 347.199 167.134 346.139 167.134 346.139 167.134 346.139 167.263 348.565 168.333 349.95 168.459 350.013 170.852 351.649 173.873 349.886 173.873 349.886 173.369 352.782 174.691 354.356 176.176 355.557 177.915 355.483 179.727 355.048 177.025 350.732 181.477 346.93 179.161 343.402 179.161 343.402 183.634 344.416 187.818 344.862 192.003 345.307 198.508 348.207 200.648 358.531 202.789 368.855 202.411 376.157 196.619 376.787 192.974 377.183 189.39 376.391 187.187 375.389 184.984 374.386 183.267 373.323 182.398 376.462 177.347 376.193 172.331 382.241 174.502 387.458 175.653 385.849 177.782 382.754 181.734 382.848 181.734 382.848 181.625 385.147 182.451 386.05 183.277 386.955 185.656 387.259 190.78 386.541 190.78 386.541 186.709 388.203 183.511 388.179 180.357 388.155 179.812 389.381 179.397 392.562 174.843 394.763 171.738 404.355 177.724 408.57 177.325 404.842 179.211 400.69 182.717 398.866 182.717 398.866 183.085 400.585 184.805 400.936 186.526 401.287 189.909 397.081 195.174 395.758 194.153 398.147 191.94 400.304 192.106 401.642 192.212 402.489 193.226 402.796 194.069 403.273 193.433 407.847 196.497 414.261 203.482 414.28 202.209 412.765 199.679 408.924 200.752 405.121 201.999 404.58 202.748 404.838 204.206 403.808 205.664 402.777 204.823 398.463 206.027 395.571 207.232 392.679 208.026 390.505 209.165 389.78 210.304 389.054 210.133 390.551 211.072 391.382 212.012 392.212 214.343 391.506 214.343 391.506 215.505 392.944 215.911 395.542 215.267 398.101 217.941 397.911 220.882 393.574 219.393 389.711 219.393 389.711 222.294 388.426 220.997 386.033 219.7 383.641 216.77 378.81 219.235 372.768 222.094 373.849 223.731 372.464 223.731 372.464L223.983 367.806C220.188 368.144 220.024 365.962 217.184 364.155 221.087 366.673 223.605 365.54 223.605 365.54L224.234 360.504C219.682 360.366 219.214 357.256 217.058 355.09 221.087 358.238 223.983 357.356 223.983 357.356L224.234 352.321C220.317 352.125 219.691 349.546 217.435 348.04 221.086 350.18 224.108 348.795 224.108 348.795L224.108 343.632C221.842 344.01 219.324 343.255 216.806 340.862 214.288 338.47 214.54 333.435 214.54 333.435L207.363 329.28C198.928 332.931 194.941 324.831 194.941 324.831 197.333 325.209 198.467 323.446 198.467 323.446 199.131 321.978 199.19 320.331 198.844 319.04 194.538 321.069 193.59 318.533 191.289 317.151 194.814 319.417 197.636 317.402 197.636 317.402 198.324 315.253 197.585 312.744 197.585 312.744 194.151 314.553 193.25 312.025 191.163 310.982 194.437 312.115 196.577 309.849 196.577 309.849 197.333 308.338 196.955 305.82 196.955 305.82 192.422 308.464 188.778 302.898 188.778 302.898 188.778 302.898 193.068 304.239 199.826 303.243 205.198 302.451 211.395 299.691 215.769 294.185 221.373 291.6 223.022 296.187 223.022 296.187 224.943 294.219 225.814 291.943 225.814 291.943 225.814 291.943 225.421 286.642 219.558 287.547 223.751 281.195 227.742 285.058 227.742 285.058 228.598 282.444 228.377 280.017 228.377 280.017 228.377 280.017 225.871 275.748 221.325 278.503 221.346 277.629 221.315 276.761 221.247 275.899 224.773 271.497 228.473 274.134 228.473 274.134 228.725 271.364 228.221 269.476 228.221 269.476 228.221 269.476 224.59 264.966 219.795 269.215 218.95 266.895 217.775 264.682 216.268 262.64 213.805 259.301 211.115 256.602 207.462 253.849 208.561 252.953 211.011 251.439 214.753 248.16 218.798 244.617 222.976 239.289 224.586 230.749 226.25 221.926 222.976 213.266 216.327 208.444 212.667 205.79 207.251 203.627 200.225 203.624ZM201.32 211.677C201.32 211.677 206.484 212.478 204.704 218.354 204.704 218.354 207.463 218.889 209.333 217.998 209.333 217.998 210.981 215.039 209.202 211.783 210.421 212.3 211.543 212.928 212.546 213.655 217.032 216.909 219.494 222.986 218.256 229.553 216.964 236.404 213.346 240.831 208.543 244.487 206.188 246.28 203.337 247.717 200.699 249.053 197.844 246.983 195.821 246.665 189.996 242.88 184.172 239.096 180.283 232.582 180.772 226.212 181.023 222.93 181.706 220.335 184.277 217.229 186.848 214.123 189.624 216.517 189.093 219.067 191.577 219.145 193.803 218.693 193.803 218.693 193.803 218.693 195.604 215.405 193.145 212.515 193.145 212.515 198.382 212.924 196.513 218.533 196.513 218.533 199.095 219.244 201.232 218.443 201.232 218.443 203.902 214.615 201.32 211.677Z" stroke="#000000" stroke-width="0.600495" fill="#FFC72C" fill-rule="evenodd" transform="matrix(1.00083 0 0 1 65.3554 -79.2447)"/><path d="M185.739 273.627C188.294 278.227 185.056 282.189 185.056 282.189L186.337 282.189C186.337 282.189 189.284 278.242 186.706 273.603 184.129 268.964 185.408 265.833 186.898 263.909 184.827 265.545 183.183 269.027 185.739 273.627ZM193.22 263.909C190.77 265.925 189.572 268.249 191.425 273.493 193.277 278.737 190.331 282.189 190.331 282.189L191.374 282.189C191.374 282.189 194.326 278.523 192.215 273.24 190.103 267.958 191.732 265.831 193.22 263.909ZM119.95 275.658C118.918 277.784 119.266 279.843 120.333 281.154 117.965 285.91 116.728 288.835 116.728 288.835L117.294 289.07C117.294 289.07 118.63 286.247 121.036 281.205 120.014 279.954 119.522 277.916 119.95 275.658ZM112.293 280.464C112.453 283.393 110.684 287.128 110.684 287.128L111.236 287.395C111.236 287.395 113.105 283.612 112.293 280.464ZM104.816 282.337C104.79 284.216 103.75 286.186 102.859 287.729L103.389 288.037C104.287 286.481 105.439 284.406 104.816 282.337ZM96.0016 285.096C95.6324 287.543 93.9386 290.433 93.9386 290.433L94.5004 290.678C94.5004 290.678 96.5999 286.953 96.0016 285.096ZM44.7277 286.177 44.578 286.77C44.578 286.77 46.3006 287.206 48.9341 287.172 46.404 286.604 44.7277 286.177 44.7277 286.177ZM87.6309 287.766C87.6218 289.773 86.431 291.279 85.6709 292.729L86.2136 293.014C87.2278 291.318 88.1973 289.487 87.6309 287.766ZM78.2849 291.237C78.2495 294.894 76.1566 295.056 76.0482 298.497L76.664 298.461C76.812 295.818 79.2358 293.795 78.2849 291.237ZM46.5296 294.56C44.4099 294.797 39.7511 295.957 39.7511 295.957L39.9008 296.555C39.9008 296.555 44.554 295.393 46.5296 294.56ZM187.61 309.518C187.61 309.518 189.356 310.33 191.015 311.248L191.314 310.714C189.575 309.751 187.61 309.518 187.61 309.518ZM188.383 315.565C188.035 315.541 187.687 315.569 187.343 315.66 188.945 315.796 190.016 316.766 191.137 317.416L191.441 316.886C190.475 316.17 189.427 315.634 188.383 315.565ZM190.058 323.039C189.953 323.037 189.849 323.04 189.745 323.05 191.639 323.631 193.268 324.968 194.914 325.136L194.968 324.525C193.16 324.316 191.62 323.067 190.058 323.039ZM211.524 344.895C211.306 344.903 211.08 344.922 210.846 344.953 214.809 345.509 215.64 347.367 217.282 348.306L217.586 347.772C216.277 347.024 214.793 344.772 211.524 344.895ZM211.077 351.948C210.885 351.952 210.689 351.964 210.49 351.985 213.417 352.255 215.514 354.173 216.857 355.324L217.256 354.858C216.013 353.793 213.957 351.897 211.077 351.948ZM212.093 360.265C214.405 361.242 215.328 363.378 217.024 364.416L217.342 363.891C215.457 362.733 214.461 360.383 212.093 360.265ZM212.182 368.543C215.153 369.185 217.023 372.057 219.108 373.047L219.36 372.49C216.902 370.766 215.091 368.404 212.182 368.543ZM195.267 385.014C193.124 385.523 190.694 386.246 190.694 386.246L190.866 386.835C190.866 386.835 193.314 386.108 195.267 385.014ZM198.826 390.889C196.789 392.674 194.914 395.591 194.914 395.591L195.43 395.922C195.43 395.922 197.302 393.021 198.826 390.889Z" fill-rule="evenodd" transform="matrix(1.00083 0 0 1 65.3554 -79.2447)"/><path d="M202.18 258.472C204.027 256.669 205.451 255.444 207.461 253.849M193.317 253.043C196.413 251.425 197.866 250.499 200.699 249.053" stroke="#000000" stroke-width="0.600498" fill="none" fill-rule="evenodd" transform="matrix(1.00083 0 0 1 65.3554 -79.2447)"/><path d="M88.4848 220.603C86.0544 224.547 86.6636 233.467 97.2395 233.215 107.815 232.964 113.859 230.949 121.161 233.467 128.464 235.985 129.723 238.881 129.723 238.881L129.796 235.46C129.796 235.46 122.583 226.779 109.111 228.164 95.6397 229.549 95.2188 226.063 95.4553 223.426 95.6918 220.788 99.0391 219.522 99.0391 219.522 97.9799 217.008 90.9152 216.66 88.4848 220.603Z" stroke="#000000" stroke-width="0.600498" fill="#FFC72C" fill-rule="evenodd" transform="matrix(1.00083 0 0 1 65.3554 -79.2447)"/><path d="M111.966 187.358C107.425 192.61 106.655 196.127 106.655 196.127 107.1 197.195 107.367 197.641 106.121 199.777 104.874 201.914 100.067 210.371 100.067 210.371 100.067 210.371 101.135 213.042 104.874 214.556 104.874 214.556 104.874 218.117 106.21 220.788 106.21 220.788 108.257 221.411 110.394 221.767 110.394 221.767 110.305 225.061 112.798 227.02 112.798 227.02 113.28 221.239 117.16 219.385 121.04 217.531 124.583 218.164 127.02 223.139 129.457 228.115 129.972 233.657 127.168 239.775 124.364 245.893 117.234 244.433 115.186 241.138 113.138 237.843 113.154 234.676 113.51 233.073 113.51 233.073 110.78 232.895 109.8 237.792 109.8 237.792 107.931 238.504 105.972 238.504 105.972 238.504 105.527 239.572 105.883 241.798 106.239 244.024 102.767 249.989 97.4255 248.386 97.4255 248.386 97.0694 250.968 98.0487 252.927 98.0487 252.927 101.165 255.063 104.459 253.817 99.322 256.496 94.2452 255.585 91.1936 259.604 91.1936 259.604 92.529 262.274 92.44 264.144 97.5074 261.221 102.062 263.316 108.317 260.227 108.317 260.227 105.646 264.322 107.248 268.417L111.521 269.753C111.521 269.753 111.343 265.301 115.884 263.343 115.884 263.343 114.994 267.527 116.596 270.465 118.022 271.116 119.771 271.534 121.671 271.711 121.671 271.711 120.068 266.726 125.054 262.72 125.054 262.72 124.43 268.862 127.546 271.533 128.981 272.038 131.489 272.17 132.71 271.8 130.048 267.474 132.92 266.735 133.689 260.85 135.202 264.461 135.391 268.176 138.675 270.821 140.57 270.715 141.816 270.596 143.927 269.931 140.298 265.268 142.601 262.638 140.9 258.268 143.725 261.841 146.378 264.371 151.762 264.144 152.988 262.376 153.752 260.082 153.988 258.357 146.286 257.424 147.366 253.775 143.215 248.831 143.215 248.831 148.379 253.995 152.83 250.968L153.809 245.982C146.915 245.846 148.883 243.611 143.616 239.172 147 240.526 149.58 243.157 153.275 241.531 153.988 239.394 154.166 236.011 154.166 236.011 149.467 236.182 148.085 235.789 144.818 232.005 144.818 232.005 149.714 235.566 152.919 233.162L154.255 228.355C149.99 228.591 148.779 228.399 145.352 225.061 145.352 225.061 149.536 227.554 152.652 224.883L153.275 220.669C153.275 220.669 147.845 221.292 144.462 217.642 144.462 217.642 149.358 218.799 151.851 215.772L151.94 211.41C151.94 211.41 148.379 212.835 145.619 211.855 145.619 211.855 145.735 208.899 146.905 204.722L142.653 193.959Z" stroke="#000000" stroke-width="0.600498" fill="#FFC72C" fill-rule="evenodd" transform="matrix(1.00083 0 0 1 65.3554 -79.2447)"/><path d="M111.498 196.996C111.228 197.022 110.956 197.114 110.673 197.267 111.217 197.267 112.348 197.613 113.097 198.817 112.488 199.946 111.452 201.87 113.211 203.697 112.69 204.058 112.185 204.293 111.53 204.52 111.53 204.52 114.141 204.823 117.225 202.026 117.225 202.026 119.396 202.879 120.958 202.112 117.756 202.235 115.187 200.058 113.808 198.521 112.773 197.368 112.309 196.915 111.498 196.996ZM132.816 197.363C131.111 198.372 128.705 198.709 128.705 198.709 128.705 198.709 131.299 198.851 133.147 197.884ZM113.676 199.426C113.676 199.426 115.383 201.135 116.613 201.513 116.613 201.513 115.747 202.543 113.787 203.471 113.787 203.471 113.056 202.689 113.056 201.507 113.056 200.325 113.676 199.426 113.676 199.426ZM135.912 199.642C134.801 199.68 133.734 200.536 133.734 200.536 133.734 200.536 135.674 200.148 136.34 200.945 137.005 201.743 136.36 203.338 136.36 203.338 136.36 203.338 138.726 201.781 137.359 200.253 136.932 199.775 136.417 199.625 135.912 199.642ZM141.107 201.765C140.526 202.927 139.723 204.298 138.139 205.473 140.235 204.808 141.075 203.2 141.651 202.05ZM137.249 207.61C140.532 208.365 142.828 211.23 145.521 212.147L145.712 211.564C142.705 210.261 140.347 207.777 137.249 207.61ZM108.843 211.183C108.833 211.635 108.94 212.069 108.28 212.805 107.62 213.54 105.758 214.33 105.758 214.33 105.758 214.33 107.506 214.313 108.655 213.322 109.805 212.331 109.284 211.309 108.843 211.183ZM138.132 214.707C137.987 214.709 137.842 214.717 137.696 214.734 140.386 215.017 142.248 217.117 144.353 217.93L144.571 217.355C142.394 216.282 140.307 214.688 138.132 214.707ZM139.029 222.302C142.898 222.954 145.132 225.274 145.132 225.274L145.572 224.849C145.572 224.849 143.174 222.362 139.029 222.302ZM140.315 230.157C139.907 230.17 139.478 230.218 139.032 230.314 142.402 230.19 144.612 232.23 144.612 232.23L145.024 231.781C145.024 231.781 143.172 230.071 140.315 230.157ZM140.743 238.022C140.481 238.016 140.206 238.027 139.921 238.06 142 238.408 143.439 239.424 143.439 239.424L143.793 238.922C143.793 238.922 142.576 238.063 140.743 238.022ZM139.032 246.606C141.723 247.251 142.964 249.011 142.964 249.011L143.467 248.653C143.467 248.653 142.038 246.674 139.032 246.606ZM107.605 251.146C106.334 252.838 104.358 253.525 104.358 253.525L104.557 254.109C104.557 254.109 106.738 253.371 107.605 251.146ZM110.631 254.439C110.325 257.96 108.107 259.999 108.107 259.999L108.524 260.452C108.524 260.452 110.937 258.219 110.631 254.439ZM137.249 255.065C139.7 256.375 140.623 258.398 140.623 258.398L141.18 258.139C141.18 258.139 140.14 255.89 137.249 255.065ZM117.487 256.309C118.136 260.694 115.669 263.124 115.669 263.124L116.099 263.559C116.099 263.559 118.797 260.828 117.487 256.309ZM124.788 256.577C126.316 259.888 124.788 262.567 124.788 262.567L125.322 262.871C125.322 262.871 127 259.853 124.788 256.577ZM131.997 258.268C133.224 259.426 133.383 260.882 133.383 260.882L133.994 260.815C133.994 260.815 133.797 259.069 131.997 258.268Z" fill-rule="evenodd" transform="matrix(1.00083 0 0 1 65.3554 -79.2447)"/><path d="M4.90489 26.5052C5.04199 15.8099 0.293328 0.727691 0.293328 0.727691 2.7691-0.104812 6.92593 0.960106 7.953 5.13096 11.185 5.17883 13.9075 6.94744 14.1466 11.4677 12.5363 11.4685 10.9248 11.43 10.3958 13.1516 9.86683 14.8732 10.6995 16.0336 12.2248 15.8953 13.7501 15.757 14.4074 13.063 14.4074 13.063L17.6849 13.0413C17.6849 13.0413 17.6849 15.9903 19.9149 15.9903 22.145 15.9903 22.8687 13.3841 21.0265 11.5419 19.1843 9.69976 16.6634 11.3931 16.6634 11.3931 15.4868 6.543 18.4311 4.89231 20.7356 5.13097 21.7627 0.960122 24.6591-0.104806 25.3462-0.4358 26.0334-0.104806 28.9297 1.251 29.9568 5.42184 32.1643 5.47405 34.7209 7.99737 33.7382 11.49 33.7382 11.49 31.5081 9.89367 29.6659 11.7359 27.8237 13.5781 28.5475 15.9902 30.7775 15.9902 33.0075 15.9902 33.2984 13.0413 33.2984 13.0413L36.806 13.2833C36.806 13.2833 36.6694 16.3335 38.287 16.6708 39.9046 17.0082 40.8734 15.9948 40.7604 14.1973 40.6475 12.3998 38.8774 11.7707 36.633 11.7823 37.6285 7.15149 40.3005 5.58159 44.3272 7.06424 46.494 3.71193 51.1707 3.27835 53.3841 4.66514 53.3841 4.66514 46.5016 17.1469 43.8504 28.9369L37.6642 28.4894C37.416 26.1025 36.5886 24.3585 35.5344 23.5957 30.5067 23.8939 29.8773 26.3552 28.2596 27.8048Z" stroke="#000000" stroke-width="0.600574" fill="#FFC72C" fill-rule="evenodd" transform="matrix(0.922151 0.388327 -0.38865 0.921386 183.192 81.7867)"/></g></g></g></g></svg>